# xmcd
#
# Track frame offsets: 
#        200
#        12065
#        25095
#        44377
#        63457
#        77582
#        100867
#        118082
#        137602
#        153912
#        179332
#
# Disc length: 2614 seconds
#
# Revision: 3
# Processed by: cddbd v1.5.2PL0 Copyright (c) Steve Scherf et al.
# Submitted via: ExactAudioCopy v0.99pb4
#
DISCID=810a340b
DTITLE=Ian Tyson - Cowboyography
DYEAR=1986
DGENRE=
TTITLE0=Springtime
TTITLE1=Navajo Rug
TTITLE2=Summer Wages
TTITLE3=Fifty Years Ago
TTITLE4=Rockies Turn Rose
TTITLE5=Claude Dallas
TTITLE6=Own Heart's Delight
TTITLE7=The Gift
TTITLE8=Cowboy Pride
TTITLE9=Old Cheyenne
TTITLE10=The Coyote and The Cowboy
EXTD=
EXTT0=
EXTT1=
EXTT2=
EXTT3=Rockies Turn Rose\nClaude Dallas\nOwn Heart's Delight\nThe Gift\n
EXTT3=Cowboy Pride\nOld Cheyenne\nThe Coyote and The Cowboy\n
EXTT4=
EXTT5=
EXTT6=
EXTT7=
EXTT8=
EXTT9=
EXTT10=
PLAYORDER=
